<svg width="60" height="60" viewBox="0 0 60 60" fill="none" xmlns="http://www.w3.org/2000/svg">
<path d="M30 55C36.9035 55 43.1535 52.2018 47.6776 47.6776C52.2018 43.1535 55 36.9035 55 30C55 23.0965 52.2018 16.8465 47.6776 12.3223C43.1535 7.79822 36.9035 5 30 5C23.0965 5 16.8465 7.79822 12.3223 12.3223C7.79822 16.8465 5 23.0965 5 30C5 36.9035 7.79822 43.1535 12.3223 47.6776C16.8465 52.2018 23.0965 55 30 55Z" stroke="#143C56" stroke-width="4" stroke-linejoin="round"/>
<path d="M30 35V30.5C33.866 30.5 37 27.4779 37 23.75C37 20.0221 33.866 17 30 17C26.134 17 23 20.0221 23 23.75" stroke="#00C88C" stroke-width="4" stroke-linecap="round" stroke-linejoin="round"/>
<path fill-rule="evenodd" clip-rule="evenodd" d="M30 44C31.1046 44 32 43.1046 32 42C32 40.8954 31.1046 40 30 40C28.8954 40 28 40.8954 28 42C28 43.1046 28.8954 44 30 44Z" fill="#00C88C"/>
</svg>
