<svg width="60" height="60" viewBox="0 0 60 60" fill="none" xmlns="http://www.w3.org/2000/svg">
<path d="M6.20312 51.4972H4.20312C4.20312 52.2111 4.58366 52.8708 5.2016 53.2283C5.81954 53.5858 6.58118 53.5868 7.20007 53.231L6.20312 51.4972ZM18.6725 44.3273V42.3273C18.3226 42.3273 17.9789 42.4191 17.6755 42.5935L18.6725 44.3273ZM8.20312 14.8203C8.20312 12.6112 9.99399 10.8203 12.2031 10.8203V6.82031C7.78485 6.82031 4.20312 10.402 4.20312 14.8203H8.20312ZM8.20312 36.8164V14.8203H4.20312V36.8164H8.20312ZM8.20312 38.3273V36.8164H4.20312V38.3273H8.20312ZM8.20312 51.4972V38.3273H4.20312V51.4972H8.20312ZM17.6755 42.5935L5.20618 49.7634L7.20007 53.231L19.6694 46.0611L17.6755 42.5935ZM48.001 42.3273H18.6725V46.3273H48.001V42.3273ZM52.001 38.3273C52.001 40.5364 50.2101 42.3273 48.001 42.3273V46.3273C52.4193 46.3273 56.001 42.7456 56.001 38.3273H52.001ZM52.001 14.8203V38.3273H56.001V14.8203H52.001ZM48.001 10.8203C50.2101 10.8203 52.001 12.6112 52.001 14.8203H56.001C56.001 10.402 52.4193 6.82031 48.001 6.82031V10.8203ZM12.2031 10.8203H48.001V6.82031H12.2031V10.8203Z" fill="#143C56"/>
<path d="M29.9997 30.0853C31.4514 30.0853 32.6282 28.9084 32.6282 27.4567C32.6282 26.005 31.4514 24.8281 29.9997 24.8281C28.5479 24.8281 27.3711 26.005 27.3711 27.4567C27.3711 28.9084 28.5479 30.0853 29.9997 30.0853Z" fill="#00C88C"/>
<path d="M40.5153 30.0853C41.967 30.0853 43.1439 28.9084 43.1439 27.4567C43.1439 26.005 41.967 24.8281 40.5153 24.8281C39.0636 24.8281 37.8867 26.005 37.8867 27.4567C37.8867 28.9084 39.0636 30.0853 40.5153 30.0853Z" fill="#00C88C"/>
<path d="M19.4879 30.0853C20.9397 30.0853 22.1165 28.9084 22.1165 27.4567C22.1165 26.005 20.9397 24.8281 19.4879 24.8281C18.0362 24.8281 16.8594 26.005 16.8594 27.4567C16.8594 28.9084 18.0362 30.0853 19.4879 30.0853Z" fill="#00C88C"/>
</svg>
