<svg width="60" height="60" viewBox="0 0 60 60" fill="none" xmlns="http://www.w3.org/2000/svg">
<path d="M35.1242 15C37.566 15.4764 39.8101 16.6706 41.5693 18.4298C43.3285 20.189 44.5227 22.4332 44.9991 24.875M35.1242 5C40.1973 5.56359 44.9281 7.83544 48.5398 11.4425C52.1514 15.0496 54.4292 19.7775 54.9991 24.85M25.5666 34.6577C22.5627 31.6537 20.1907 28.2571 18.4507 24.6331C18.301 24.3213 18.2262 24.1655 18.1687 23.9683C17.9644 23.2674 18.1111 22.4067 18.5362 21.8132C18.6558 21.6461 18.7987 21.5032 19.0844 21.2175C19.9585 20.3434 20.3955 19.9064 20.6812 19.467C21.7587 17.8098 21.7587 15.6733 20.6812 14.0161C20.3955 13.5766 19.9585 13.1396 19.0844 12.2656L18.5973 11.7784C17.2687 10.4498 16.6044 9.78553 15.8909 9.42467C14.472 8.70699 12.7963 8.70699 11.3774 9.42467C10.664 9.78553 9.99969 10.4498 8.67108 11.7784L8.27699 12.1725C6.95294 13.4966 6.29091 14.1586 5.78529 15.0587C5.22424 16.0575 4.82083 17.6087 4.82424 18.7542C4.82731 19.7866 5.02757 20.4922 5.42809 21.9033C7.58051 29.4868 11.6417 36.6427 17.6117 42.6126C23.5816 48.5826 30.7375 52.6438 38.321 54.7962C39.7321 55.1967 40.4377 55.397 41.47 55.4C42.6156 55.4034 44.1668 55 45.1656 54.439C46.0657 53.9334 46.7277 53.2713 48.0517 51.9473L48.4458 51.5532C49.7744 50.2246 50.4387 49.5603 50.7996 48.8468C51.5173 47.4279 51.5173 45.7523 50.7996 44.3334C50.4387 43.6199 49.7744 42.9556 48.4458 41.627L47.9587 41.1398C47.0846 40.2658 46.6476 39.8288 46.2082 39.5431C44.551 38.4656 42.4145 38.4656 40.7573 39.5431C40.3178 39.8288 39.8808 40.2658 39.0068 41.1398C38.721 41.4256 38.5782 41.5685 38.4111 41.6881C37.8175 42.1131 36.9569 42.2599 36.256 42.0556C36.0588 41.9981 35.9029 41.9233 35.5912 41.7736C31.9672 40.0336 28.5705 37.6616 25.5666 34.6577Z" stroke="#143C56" stroke-width="4" stroke-linecap="round" stroke-linejoin="round"/>
<path d="M35.125 15C37.5668 15.4764 39.811 16.6706 41.5702 18.4298C43.3294 20.189 44.5236 22.4332 45 24.875M35.125 5C40.1982 5.56359 44.929 7.83544 48.5406 11.4425C52.1522 15.0496 54.43 19.7775 55 24.85" stroke="#00C88C" stroke-width="4" stroke-linecap="round" stroke-linejoin="round"/>
</svg>
